<svg width="203" height="77" viewBox="0 0 203 77" fill="none" xmlns="http://www.w3.org/2000/svg">
<path d="M69.3097 63.1895C69.2605 63.1895 69.2605 63.1705 69.2113 63.1705C69.2113 63.1895 69.2113 63.1895 69.3097 63.1895Z" fill="#231F20"/>
<path d="M19.5825 38.508C19.6317 38.508 19.6809 38.5273 19.6809 38.508C19.6809 38.508 19.6317 38.508 19.5825 38.508Z" fill="#231F20"/>
<path d="M16.4932 16.8642C15.9949 17.13 15.8454 17.2819 15.7956 17.3199C15.945 17.2249 16.0945 17.13 16.1942 17.0541C16.3437 16.9781 16.4433 16.9022 16.4932 16.8642Z" fill="#231F20"/>
<path d="M31.5911 10.1622C31.6403 10.1432 31.6895 10.1053 31.6895 10.0863C31.5911 10.1242 31.5911 10.1432 31.5911 10.1622Z" fill="#231F20"/>
<path d="M15.0979 58.7089C15.2972 58.8228 15.3969 58.8797 15.4966 58.8987C15.2474 58.7658 15.0979 58.6899 15.0979 58.7089Z" fill="#231F20"/>
<path d="M81.0206 76.1188C81.2199 76.1378 81.6185 76.1378 81.6185 76.1378C81.3694 76.1188 81.1701 76.1188 81.0206 76.1188Z" fill="#231F20"/>
<path d="M137.326 74.486C137.277 74.486 137.227 74.486 137.227 74.467C137.177 74.486 137.177 74.486 137.326 74.486Z" fill="#231F20"/>
<path d="M140.515 2.90963C140.167 2.85268 140.017 2.83369 139.569 2.77673L140.515 2.90963Z" fill="#231F20"/>
<path d="M119.687 68.5435C120.136 68.5055 120.534 68.4485 120.734 68.4295C120.086 68.4865 119.787 68.5245 119.687 68.5435Z" fill="#231F20"/>
<path d="M138.372 66.0943C138.322 66.1133 138.273 66.1323 138.273 66.1323C138.322 66.1133 138.372 66.1133 138.372 66.0943Z" fill="#231F20"/>
<path d="M38.1684 57.4178C37.9691 57.3418 37.8694 57.3039 37.8196 57.2849C38.0189 57.3798 38.1684 57.4368 38.1684 57.4178Z" fill="#231F20"/>
<path d="M7.2749 23.851C7.22507 23.9079 7.12541 23.9839 7.02576 24.0598C7.12541 24.0029 7.17524 23.9269 7.2749 23.851Z" fill="#231F20"/>
<path d="M171.459 66.2841C171.409 66.3031 171.309 66.3411 171.259 66.3601L171.459 66.2841Z" fill="#231F20"/>
<path d="M43.799 6.57393C43.8986 6.55494 43.9983 6.51697 44.0481 6.49799C43.9485 6.51697 43.8488 6.55494 43.799 6.57393Z" fill="#231F20"/>
<path d="M202.352 36.1158C202.352 35.831 202.402 35.5462 202.352 35.2614C202.302 34.9766 202.253 34.7108 202.203 34.445C202.153 34.1792 202.053 33.9134 202.003 33.6666C201.954 33.5337 201.954 33.4198 201.904 33.2869C201.854 33.173 201.804 33.0401 201.754 32.9262C201.555 32.4515 201.405 32.0148 201.256 31.5972C201.107 31.1985 201.007 30.8187 201.007 30.496C200.808 30.2302 200.658 29.9644 200.459 29.6796C200.259 29.3948 199.96 29.091 199.711 28.7873C199.462 28.4645 199.213 28.1417 198.914 27.781C198.615 27.4393 198.266 27.0596 197.967 26.6609C197.868 26.6798 197.619 26.414 197.419 26.1672C197.17 25.9204 196.921 25.7116 196.871 25.8065C196.971 25.9014 197.021 25.9964 197.07 26.0913C197.12 26.1862 197.22 26.2811 197.27 26.3761C197.419 26.5659 197.569 26.7368 197.718 26.9077C198.017 27.2684 198.366 27.5912 198.665 27.9329C199.213 28.5974 199.711 29.2429 199.911 29.8695C200.359 30.5529 200.409 30.3061 200.708 30.6099C200.857 30.9137 201.057 31.2174 201.156 31.4453C201.256 31.6731 201.256 31.844 201.206 31.9009C201.107 31.7301 201.057 31.5782 200.957 31.4643C200.857 31.3503 200.808 31.2744 200.758 31.1985C200.658 31.0656 200.558 31.0086 200.459 30.9516C200.259 30.8187 200.06 30.6289 199.562 29.7176C199.512 29.8315 199.711 30.2682 199.96 30.7428C200.06 30.9896 200.21 31.2364 200.359 31.4643C200.459 31.6921 200.509 31.9199 200.608 32.0718C200.459 31.8819 200.409 32.0908 200.509 32.5275C200.509 32.5085 200.459 32.4895 200.459 32.4705C200.309 32.1098 200.16 31.749 199.96 31.3883C199.911 31.3314 199.911 31.2554 199.861 31.1985C199.711 30.9137 199.562 30.6289 199.412 30.3251C199.363 30.2302 199.313 30.1353 199.263 30.0593C199.113 29.7935 198.964 29.5087 198.765 29.2429C198.715 29.167 198.665 29.091 198.615 28.9961C198.416 28.6544 198.167 28.3126 197.918 27.9709C197.668 27.6101 197.369 27.2494 197.07 26.9077C197.021 26.8697 197.021 26.8507 196.971 26.8127C196.722 26.509 196.473 26.2052 196.174 25.9014C196.124 25.8255 196.024 25.7685 195.974 25.6926C195.725 25.4078 195.476 25.142 195.177 24.8572C195.127 24.8003 195.077 24.7243 194.978 24.6674C194.629 24.3446 194.33 24.0029 193.931 23.6801C193.931 23.6991 193.981 23.6991 193.981 23.7181L193.782 23.5662C193.632 23.4333 193.483 23.2814 193.333 23.1485C193.234 23.0725 193.184 23.0156 193.084 22.9396C193.682 23.3004 194.031 23.3383 194.978 24.0598C194.28 23.4143 193.483 22.5979 192.586 21.8954C192.137 21.5347 191.739 21.193 191.34 20.8892C190.942 20.5854 190.543 20.3386 190.244 20.1298C189.945 19.788 189.895 19.6171 190.244 19.7311C189.995 19.5792 189.746 19.4463 189.546 19.2944C189.297 19.1615 189.098 19.0286 188.899 18.8957C188.5 18.6489 188.151 18.4021 187.852 18.1742C187.204 17.6996 186.557 17.2629 185.66 16.7503C183.617 15.7061 187.354 17.8894 185.759 17.149C185.261 16.8072 184.215 16.2187 183.567 15.9529C183.716 16.0288 184.015 16.1427 184.314 16.3136C184.613 16.4845 184.962 16.6743 185.311 16.9022C186.009 17.3388 186.856 17.8325 187.404 18.2502C186.457 17.6426 186.357 17.7565 185.959 17.6046L186.357 17.8515L186.756 18.0983L187.553 18.6109C187.354 18.6109 186.906 18.2881 186.308 17.9274C185.71 17.5667 185.012 17.168 184.564 16.9591C185.311 17.187 185.012 17.0351 185.759 17.2629C184.215 16.4275 181.823 15.1745 180.527 14.472C179.73 14.0543 181.375 14.7758 181.823 14.9846C181.624 14.7378 180.079 14.2062 179.93 13.9974C180.328 14.0733 180.976 14.472 181.624 14.7568C179.979 13.9594 178.385 13.181 176.591 12.4405C176.641 12.4215 178.036 12.9531 178.783 13.3328C178.036 12.9721 177.338 12.6683 176.591 12.3836C176.192 12.2317 175.794 12.0798 175.395 11.9279C174.947 11.776 174.448 11.6241 173.9 11.4533C173.452 11.2634 172.954 11.0735 172.555 10.8837C172.107 10.6938 171.708 10.523 171.359 10.3901C170.662 10.1053 170.313 9.95338 170.711 10.0483C169.765 9.74454 170.313 9.99135 170.213 10.0103C168.868 9.5357 168.12 9.28888 167.373 9.11801C166.675 8.94714 166.127 8.81424 165.28 8.54844L166.426 9.00409C165.131 8.54843 164.931 8.51046 164.782 8.51046C164.682 8.51046 164.632 8.51046 164.433 8.45351C164.234 8.39655 163.935 8.30162 163.337 8.11176C163.885 8.16872 163.835 8.0548 163.586 7.86495C163.038 7.80799 161.593 7.29537 160.497 6.9916C161.045 7.23842 158.005 6.42203 159.699 6.95363C158.354 6.64986 157.457 6.38406 156.61 6.15623C155.763 5.9284 154.966 5.75753 153.919 5.56767C155.115 5.87144 151.527 5.11201 152.524 5.3968C151.876 5.24491 151.278 5.131 150.78 4.9981C150.282 4.88418 149.833 4.77027 149.485 4.69432C148.837 4.52345 148.637 4.42852 149.036 4.46649C149.933 4.65635 151.378 4.9981 151.328 4.92215L148.936 4.42852C148.538 4.35258 148.139 4.25765 147.741 4.18171L146.495 3.95388C145.299 3.68808 143.754 3.38431 143.655 3.27039C142.808 3.19445 141.612 2.9856 140.466 2.77676C139.918 2.68183 139.369 2.56792 138.821 2.51096C138.323 2.43502 137.875 2.39705 137.526 2.37806C138.423 2.454 139.22 2.5869 139.818 2.70082C140.416 2.81473 140.914 2.92865 141.213 2.9856L140.416 2.87169C140.515 2.89068 140.665 2.90966 140.814 2.94763C140.017 2.87169 139.27 2.79575 138.473 2.73879C140.515 3.1185 138.921 2.70082 141.911 3.17546C143.107 3.44126 141.612 3.27039 140.117 3.08053C139.519 3.00459 138.921 2.92865 138.522 2.89068C137.875 2.79575 137.227 2.70082 136.529 2.60589C136.18 2.56792 135.881 2.51096 135.533 2.47299C135.184 2.43502 134.835 2.37806 134.536 2.34009C134.137 2.28313 133.739 2.22617 133.29 2.1882C133.041 2.15023 132.792 2.13124 132.543 2.09327C132.094 2.03632 131.596 1.97936 131.148 1.9224C131.497 1.94139 131.845 1.94139 131.746 1.88443C130.799 1.7895 129.753 1.67559 129.055 1.61863C128.507 1.58066 128.258 1.58066 128.507 1.63761C127.959 1.58066 127.361 1.5237 126.813 1.46674L125.218 1.29587C125.119 1.2579 126.414 1.3908 126.912 1.44776C126.215 1.37181 125.168 1.27688 124.222 1.20094C123.674 1.16297 123.125 1.14398 122.677 1.125C122.129 1.08703 121.631 1.04906 121.082 0.992098C120.435 0.935141 119.787 0.897169 119.139 0.859198C118.442 0.821226 117.744 0.764269 117.046 0.726297C116.399 0.688326 115.751 0.650354 115.053 0.612383C114.854 0.593397 114.605 0.574411 114.356 0.555425C112.761 0.498468 112.014 0.441511 111.216 0.365568C110.818 0.327596 110.369 0.289625 109.871 0.251653C109.323 0.213682 108.675 0.194696 107.778 0.17571C106.732 0.232667 105.436 0.17571 103.991 0.118753C102.546 0.0997671 100.952 0.0617955 99.3076 0.137739C100.204 0.0807813 99.2079 0.0617955 98.3608 0.0807813C97.5137 0.0807813 96.8161 0.0807813 98.2612 0.00483822C97.5636 -0.0141475 95.8196 0.023824 93.9261 0.0997671C92.0326 0.194696 89.9897 0.289625 88.6443 0.308611C88.9931 0.270639 88.9931 0.251653 89.2921 0.213682C86.0034 0.441511 86.9502 0.270639 84.3591 0.422525L84.5086 0.517454C83.512 0.612383 83.1632 0.574411 82.2663 0.66934C83.0137 0.631369 84.5086 0.555426 83.7612 0.66934C82.5653 0.783255 81.5687 0.897169 80.2234 1.01108C80.1735 0.973112 81.0704 0.878184 81.7182 0.821226C81.7182 0.821226 78.878 1.03007 78.6289 1.01108C78.878 0.973112 79.1271 0.954127 79.4261 0.916155C79.7251 0.897169 79.9742 0.859198 80.2732 0.840212C80.8213 0.783255 81.3694 0.726297 81.8179 0.66934C78.0309 0.935141 81.5189 0.650354 79.6254 0.726297C80.2234 0.783255 76.4364 1.08703 74.4433 1.31486C74.1942 1.27688 75.8385 1.16297 76.3368 1.06804C74.3436 1.14398 72.8986 1.33384 71.4038 1.54269C69.8591 1.73254 68.2646 2.03632 65.823 2.34009C65.9227 2.3211 66.4708 2.22617 66.7698 2.16922C66.2216 2.26414 65.6735 2.3211 65.1753 2.39705C64.677 2.47299 64.2285 2.52995 63.8299 2.5869C62.9828 2.70082 62.2354 2.81473 61.5378 2.96662C60.4416 3.1185 60.3419 3.1185 60.0928 3.13749C59.8436 3.15648 59.3952 3.19445 57.8007 3.47923C58.3488 3.46025 57.4021 3.61213 56.3058 3.80199C55.2594 4.01084 54.0636 4.23866 54.1134 4.31461C53.2663 4.46649 52.4192 4.58041 51.622 4.75128C49.6787 5.28288 52.4691 4.82722 48.4828 5.75753C44.8454 6.61189 48.4828 5.47274 46.2904 5.94738L45.5429 6.23217L43.7491 6.63087C42.7027 6.93464 41.1082 7.37132 41.0584 7.33335C41.1581 7.2574 42.2543 6.95363 42.4038 6.87769C41.6065 7.14349 39.8625 7.56117 38.2182 8.0548C37.3711 8.30162 36.5739 8.52945 35.8265 8.75728C35.1289 9.00409 34.5807 9.21294 34.2818 9.40279C33.7835 9.55468 33.0859 9.78251 32.488 9.97237C31.89 10.1622 31.4914 10.2951 31.5412 10.2382C31.2423 10.428 30.1959 10.7888 29.1495 11.1685C28.1031 11.5482 27.0567 11.9849 26.5584 12.2317C26.6082 12.1937 26.3093 12.2696 25.9605 12.4025C25.7612 12.4785 25.5619 12.5544 25.3127 12.6494C25.1134 12.7443 24.8643 12.8392 24.7148 12.9341C25.8608 12.4595 25.2629 12.8012 24.6151 13.162C24.067 13.3518 23.1701 13.7695 22.323 14.1492C21.5258 14.5479 20.7783 14.9087 20.4296 14.9656C19.134 15.7061 19.8316 15.4972 19.6821 15.6871C18.6856 16.1048 16.0447 17.6046 16.2938 17.2819C16.9914 16.8832 18.6856 16.0098 18.1873 16.1238C16.7423 16.8642 17.689 16.4655 16.5928 17.111C16.5928 17.0541 15.6959 17.5097 15.8454 17.3578C15.2474 17.7565 14.4003 18.2881 13.5034 18.8197C14.2509 18.4021 14.0515 18.5539 13.8522 18.7438C13.6529 18.9337 13.354 19.1805 13.8024 18.9337C14.1512 18.6299 14.5498 18.3641 14.8986 18.0603C16.4931 17.0541 15.3969 17.8894 16.0447 17.5287C14.6993 18.402 14.1512 18.7628 13.8024 19.1425C13.4038 19.5032 13.0052 19.864 11.9089 20.7183C11.4605 21.0221 10.6632 21.5917 10.4141 21.7625C11.1117 21.193 10.7131 21.2499 10.2646 21.5727C10.0155 21.8195 9.71649 22.0473 9.46735 22.2751C9.21821 22.503 8.96907 22.7118 8.6701 22.9207C8.22165 23.2624 7.7732 23.5662 7.37457 23.9079C7.57388 23.737 7.72337 23.6991 7.72337 23.737C7.7732 23.775 7.62371 23.9459 7.52405 24.0788C6.02921 25.8255 6.77663 24.7433 5.92955 25.4837C5.58076 25.8065 5.38144 26.1482 5.08247 26.452C4.83333 26.7558 4.58419 27.0596 4.33505 27.3443C4.08591 27.6291 3.8866 27.9139 3.68728 28.1797C3.48797 28.4455 3.28866 28.7303 3.08935 28.9771C2.69072 29.5087 2.39175 30.0213 2.09278 30.5529C1.9433 30.8187 1.79381 31.0845 1.69416 31.3503C1.54467 31.6161 1.49485 31.9009 1.39519 32.1857C1.64433 31.825 1.84364 31.4832 2.14261 31.1415L2.09278 30.7618C2.74055 29.9454 2.59107 30.9516 2.49141 31.4453C2.34192 31.5592 1.84364 32.9451 1.9433 32.3756C1.79381 32.8312 1.64433 33.2679 1.54467 33.7236C1.69416 33.5337 1.99313 32.6604 1.89347 33.2869C1.64433 33.7236 1.2457 35.1095 1.34536 34.2362C1.2457 34.5969 1.14605 34.9956 1.14605 35.2994C1.09622 35.6032 1.19588 35.793 1.2457 35.7171C1.19588 36.2866 1.09622 36.2677 1.04639 36.0208C0.996564 35.9069 0.996564 35.7361 0.946735 35.5462C0.946735 35.3753 0.946735 35.1855 0.946735 35.0716C0.797251 35.5272 0.747423 35.7171 0.647766 35.774C0.597938 35.831 0.498282 35.7171 0.498282 35.5842L0.348797 36.8562C0.298969 36.5714 0.199313 36.5714 0.149485 36.2866C0.0498282 36.7043 0.0498282 37.0651 0.0498282 37.4068C0.0996564 37.7485 0.0996564 38.0903 0 38.451L0.199313 38.7738C0.149485 39.3623 0.199313 39.78 0.199313 40.1218C0.199313 40.4635 0.249141 40.7103 0.249141 40.9761C0.249141 41.2229 0.298969 41.4698 0.398625 41.7925C0.498282 42.1153 0.597938 42.495 0.697594 43.0456L0.747423 42.6848C0.896907 43.0835 1.04639 43.3683 1.14605 43.5962C1.2457 43.824 1.2457 43.9949 1.29553 44.1657C1.34536 44.5455 1.39519 44.9821 2.04296 46.0643C2.24227 46.3681 2.39175 46.6339 2.54124 46.8807C2.69072 47.1275 2.89003 47.3174 3.03952 47.4882C3.33849 47.811 3.48797 47.9629 3.58763 47.868C4.13574 48.5515 4.08591 48.7223 4.23539 49.0451C4.53436 49.3109 4.98282 49.7096 5.38144 50.1652C5.4811 50.2792 5.58076 50.3931 5.68041 50.507C5.78007 50.6209 5.92955 50.7348 6.02921 50.8487C6.22852 51.0766 6.47766 51.3044 6.62715 51.5132C6.02921 50.9626 5.4811 50.526 5.03265 49.9944C4.88316 50.1842 6.57732 51.836 7.37457 52.6903C7.57388 52.8422 7.87285 53.0511 8.22165 53.3359C8.42096 53.4688 8.57045 53.6206 8.76976 53.7725C8.96907 53.9244 9.16838 54.0953 9.41753 54.2472C9.91581 54.5699 10.4141 54.9117 10.8625 55.2344C11.1117 55.3863 11.311 55.5572 11.5601 55.6901C11.8093 55.842 12.0086 55.9749 12.2079 56.0888C11.7594 55.5952 12.2577 55.7091 13.7526 56.5824C13.6031 56.5255 13.9519 56.8482 14.5498 57.2469C15.1478 57.6456 15.8952 58.1393 16.2938 58.443C15.9948 58.3101 16.4433 58.6709 16.7423 58.8987C16.8918 59.0126 16.9914 59.0885 16.8918 59.0696C16.8419 59.0506 16.543 58.9177 16.0447 58.5949C15.4966 58.1962 15.4467 57.9874 14.5498 57.4937C14.6993 57.6646 15.0979 57.9684 15.5962 58.3291C15.8454 58.519 16.0945 58.7088 16.3935 58.9177C16.6924 59.1265 17.0412 59.3354 17.3402 59.5442C17.2405 59.5252 16.9914 59.4113 16.6426 59.2404C16.2938 59.0696 15.8952 58.8607 15.5464 58.6329C15.9948 58.8607 15.7955 58.7088 15.7955 58.6709C13.1546 57.133 15.9948 59.0885 15.4966 58.8987C16.244 59.2974 17.7388 60.1897 17.1409 59.7341C17.39 59.9619 17.8385 60.2087 18.2869 60.4935C18.7852 60.7593 19.3832 61.0631 19.9811 61.3479C20.579 61.6326 21.177 61.9364 21.7749 62.2022C22.3729 62.468 22.8711 62.7148 23.2199 62.9427C23.3196 62.9616 22.4227 62.468 23.7182 62.9996C24.6151 63.4173 25.0636 63.6072 25.3127 63.7401C25.5619 63.873 25.6615 63.9679 26.0601 64.1388C26.4089 64.2337 27.256 64.5944 28.0533 64.8982C28.8505 65.202 29.5481 65.4678 29.3986 65.4108C30.7938 65.9044 28.2526 64.7653 30.2457 65.4298C31.6409 65.8475 33.2852 66.531 34.8797 67.0436C36.6237 67.7461 32.9364 66.436 32.1392 66.1892L34.7801 67.1005C35.2285 67.2524 35.677 67.3853 36.1254 67.5372L37.5206 67.9549C39.0653 68.5055 36.6237 67.803 35.0292 67.2714C36.0756 67.6511 37.3213 68.0498 38.4175 68.3726C39.5137 68.6953 40.5103 68.9042 40.8591 68.9801C41.5567 69.189 42.1048 69.3409 42.6031 69.5117C43.1512 69.6636 43.6993 69.7965 44.3471 70.0054C43.5997 69.8535 43.2509 69.7965 42.7526 69.7206C42.2543 69.6446 41.7062 69.5307 40.6598 69.2459C37.2216 68.2397 42.1048 69.5117 39.2148 68.6574H38.8161C37.6701 68.2397 36.6237 67.9739 35.2783 67.5752C34.5807 67.3284 35.4777 67.5942 35.9759 67.7461C34.7801 67.3853 33.8333 67.0056 32.8866 66.6829C32.4381 66.512 31.9399 66.3601 31.4914 66.2082C31.043 66.0563 30.5945 65.9044 30.146 65.7715C30.4948 65.9234 30.8436 66.0753 31.2423 66.2272C31.6409 66.3791 32.0893 66.531 32.5378 66.6829C33.4347 66.9866 34.2818 67.3094 35.1787 67.5942C36.0756 67.879 36.8728 68.1258 37.5704 68.3536C37.9192 68.4675 38.2182 68.5624 38.4674 68.6574C38.7165 68.7523 38.9656 68.8282 39.1151 68.8852L42.5034 69.7775L45.9914 70.6129C46.0412 70.5749 43.799 69.9104 45.7921 70.3661C46.39 70.6699 48.3832 71.1825 51.0739 71.828C50.177 71.5242 55.6082 72.6634 54.3625 72.3026C53.0172 72.0748 52.4691 71.866 52.3196 71.828C55.0103 72.3786 52.8179 71.809 54.2629 72.1128C54.8608 72.2457 55.3093 72.3406 55.6581 72.4166C56.0069 72.4925 56.2062 72.5305 56.3557 72.5684C56.6546 72.6254 56.6048 72.6254 56.555 72.6444C56.4553 72.6444 56.3557 72.6634 58.7972 73.119C58.2491 73.0431 57.3024 72.9102 56.1065 72.7393C55.5086 72.6634 54.9106 72.5495 54.2131 72.4355C53.5653 72.3216 52.8677 72.1887 52.2199 72.0748C52.2698 72.1128 52.9673 72.2457 53.7148 72.4166C54.512 72.5684 55.4089 72.7773 55.957 72.8912C54.4124 72.5495 57.2027 73.0051 55.9072 72.7393C59.8935 73.4608 64.7268 74.1253 69.8093 74.7518C69.3608 74.7898 67.2182 74.505 65.3746 74.2962C64.9261 74.2392 64.4777 74.1822 64.079 74.1253C63.6804 74.0683 63.3316 74.0303 63.0825 74.0114C62.5344 73.9544 62.335 73.9544 62.6838 74.0683C65.1254 74.448 65.2251 74.3531 67.1684 74.6379C67.9656 74.7898 69.4106 75.0176 71.1048 75.1885C71.9519 75.2834 72.8488 75.3783 73.7955 75.4733C74.6924 75.5682 75.6392 75.6441 76.4863 75.7391L74.9914 75.5492C75.689 75.5872 76.5859 75.6821 77.5825 75.777C78.5292 75.872 79.5258 75.9859 80.323 76.0428L79.9244 76.0239L81.4691 76.1188C81.7182 76.1378 81.768 76.1568 81.768 76.1568C83.4622 76.2517 87.7474 76.5744 91.0361 76.6884C91.0361 76.6504 90.2388 76.6314 89.2423 76.5744C88.2457 76.5175 87.0498 76.4795 86.2526 76.4226C86.0533 76.4036 85.2062 76.3276 84.6082 76.2897C84.0103 76.2327 83.6117 76.1757 84.3591 76.1947C86.3522 76.3276 88.0962 76.3846 89.8402 76.4605C90.7371 76.4795 91.634 76.4985 92.6306 76.5365C93.1289 76.5555 93.6271 76.5744 94.1254 76.5744C94.3746 76.5744 94.6735 76.5934 94.9227 76.5934C95.1718 76.5934 95.4708 76.6124 95.7698 76.6124C95.2715 76.5934 94.823 76.5744 94.3247 76.5555C95.0722 76.5555 95.9192 76.5555 96.866 76.5744C97.8127 76.5934 98.8591 76.6124 99.9553 76.6314C101.948 76.6694 101.201 76.6884 100.304 76.7073C99.3574 76.7263 98.2612 76.7263 99.457 76.7643C97.9124 76.8023 95.1718 76.6884 94.7234 76.7643C95.5704 76.8213 96.3677 76.8782 97.2148 76.9352C98.2612 76.9162 99.3574 76.9542 100.404 76.9731C101.45 76.9921 102.397 77.0111 103.094 76.9921L101.5 76.9352C101.799 76.8402 103.294 76.9162 104.041 76.9162L102.995 76.7833C101.849 76.7643 100.902 76.8023 100.005 76.8213C99.1082 76.8213 98.311 76.8213 97.4639 76.7643C99.5069 76.7833 100.304 76.7643 101.201 76.7263C102.098 76.6884 103.094 76.6694 105.536 76.6504C105.636 76.6694 105.436 76.6884 105.088 76.6884C104.739 76.6884 104.34 76.6884 104.091 76.7073C104.49 76.7073 104.938 76.7263 105.387 76.7073C105.835 76.6884 106.284 76.6694 106.782 76.6504C107.778 76.6124 108.875 76.5744 110.22 76.5744C108.675 76.6314 106.184 76.7453 108.177 76.7643L109.622 76.6314C110.868 76.6124 110.369 76.6694 110.868 76.6504C112.662 76.5934 110.419 76.5744 113.259 76.4795C113.658 76.4795 114.605 76.4605 114.206 76.4985C114.605 76.4795 114.954 76.4605 115.203 76.4605C115.452 76.4415 115.701 76.4226 115.851 76.4226C116.199 76.4036 116.399 76.3846 116.548 76.3656C116.897 76.3276 117.246 76.2897 118.691 76.1757C116 76.3276 115.851 76.1947 118.641 76.0239C122.527 75.796 125.119 75.4733 127.809 75.3404L129.503 75.1125C128.457 75.3214 131.945 74.8657 133.141 74.7328C133.39 74.7518 131.945 74.9227 130.5 75.0936C129.753 75.1885 129.005 75.2644 128.457 75.3404C127.909 75.4163 127.51 75.4733 127.56 75.5112C130.101 75.2834 129.055 75.4353 128.258 75.5492C129.603 75.4163 129.852 75.3594 129.902 75.3214C129.952 75.2834 129.802 75.2644 130.351 75.1505C130.4 75.1885 134.935 74.6189 133.44 74.8847C134.586 74.7518 135.234 74.6379 135.782 74.524C136.33 74.4291 136.828 74.3341 137.675 74.2202C137.476 74.2962 137.227 74.3721 137.426 74.4101C137.526 74.3721 138.074 74.2962 138.722 74.2202C139.32 74.1443 139.967 74.0493 140.167 74.0114C139.768 74.0493 140.864 73.8215 138.971 74.1443C139.369 73.9924 143.505 73.4228 143.356 73.3848C143.505 73.4228 144.502 73.2329 145.747 73.0051C146.345 72.8912 147.043 72.7773 147.691 72.6444C148.338 72.5305 148.936 72.3976 149.435 72.3026C149.186 72.2267 148.338 72.4355 147.392 72.6444C146.445 72.8342 145.448 73.0621 145 73.0431C145.648 72.9102 146.495 72.7393 147.541 72.5495C148.538 72.3596 149.684 72.1128 150.83 71.866C152.026 71.6381 153.172 71.3534 154.368 71.0876C154.916 70.9547 155.514 70.8218 156.062 70.6889C156.61 70.556 157.108 70.4041 157.557 70.2712C160.995 69.4548 157.656 70.3471 158.454 70.2332C157.706 70.442 157.058 70.5939 156.51 70.7458C155.962 70.8787 155.464 70.9926 154.966 71.0876C154.019 71.2964 153.122 71.5052 151.727 71.828C152.524 71.6761 153.421 71.4673 154.368 71.2584C154.816 71.1445 155.314 71.0496 155.813 70.9357L156.51 70.7648C156.759 70.7078 156.959 70.6509 157.208 70.5939C159.052 70.1193 160.796 69.6636 161.792 69.3219C163.337 68.8852 164.333 68.6954 165.28 68.4296C165.778 68.2966 166.277 68.1827 166.924 67.9929C167.522 67.822 168.27 67.6132 169.117 67.2904C168.519 67.4043 168.619 67.3663 167.423 67.7081C167.672 67.6321 167.921 67.5562 168.17 67.4613C168.419 67.3853 168.668 67.2904 168.918 67.1955C169.416 67.0246 169.964 66.8537 170.462 66.6829C171.01 66.436 168.818 67.1765 170.163 66.6639C170.711 66.493 171.907 66.1133 171.758 66.2082C173.153 65.6576 173.751 65.4868 174.299 65.3159C174.598 65.221 174.847 65.145 175.246 65.0121C175.594 64.8792 175.993 64.6893 176.591 64.3856C176.292 64.4425 175.844 64.7083 175.146 64.9551C174.847 65.0311 175.096 64.8982 175.545 64.6704C175.993 64.4425 176.641 64.1388 177.239 63.873C177.089 63.9869 178.335 63.4553 179.132 63.0945C179.481 62.9996 178.983 63.2274 178.385 63.5122C177.737 63.778 176.94 64.1008 176.79 64.2147L177.986 63.7401L178.584 63.4932L179.132 63.2464L178.634 63.4553L180.876 62.3161C179.232 63.0945 179.88 62.6199 180.577 62.2782C180.777 62.1832 181.026 62.0883 181.225 61.9934C181.424 61.8984 181.624 61.8035 181.823 61.7086C182.222 61.5187 182.57 61.3668 182.869 61.215C183.467 60.9492 183.866 60.7783 183.866 60.8542C183.916 60.7213 185.71 59.6961 186.955 58.9746C185.46 59.7341 186.607 59.0316 186.955 58.7848L189.098 57.6077C187.105 58.8987 189.696 57.3798 189.347 57.7026C189.148 57.9114 188.699 58.1962 188.201 58.538C187.952 58.7088 187.653 58.8797 187.354 59.0506C187.055 59.2215 186.706 59.3923 186.407 59.5442C187.753 58.9556 188.4 58.462 189.048 58.0064C189.347 57.7785 189.696 57.5507 189.995 57.3039C190.294 57.0571 190.692 56.8103 191.141 56.5065C191.241 56.5255 191.191 56.6584 190.393 57.171C190.593 57.0761 190.942 56.7913 191.39 56.4305C191.639 56.2597 191.888 56.0508 192.137 55.861C192.436 55.6711 192.686 55.4433 192.985 55.2534C192.636 55.4623 191.888 55.88 192.835 55.0446L194.43 54.0194C195.924 52.7473 194.679 53.5447 195.725 52.4625L194.778 53.127C194.729 53.0511 195.127 52.7093 195.526 52.3486C195.924 52.0069 196.223 51.6461 196.124 51.6271C195.974 51.798 195.825 51.9499 195.725 52.0828C195.625 52.2157 195.476 52.3486 195.326 52.4815C195.077 52.7473 194.828 53.0131 194.38 53.3549C193.881 53.5827 195.227 52.4625 195.526 52.0448C196.273 51.3234 196.572 51.0386 196.821 50.8108C197.07 50.5829 197.369 50.3931 197.868 49.8425C197.967 49.8425 197.967 49.9564 197.868 50.1273C197.818 50.2981 197.668 50.526 197.519 50.7538C197.22 51.1905 196.971 51.6082 197.32 51.5322C198.765 50.1083 200.11 47.9819 200.857 47.0326C201.057 46.7098 201.156 46.463 201.206 46.2732C201.256 46.1023 201.256 45.9884 201.206 45.9314C201.156 45.8175 200.957 45.8745 200.808 45.9694C201.057 45.4188 201.256 45.153 201.455 44.8113L201.256 45.4378C201.655 44.6214 201.804 43.9569 202.003 43.3114C202.053 43.1405 202.103 42.9886 202.153 42.8177C202.203 42.6469 202.253 42.476 202.253 42.2861C202.352 41.9254 202.452 41.5457 202.552 41.109C202.601 40.8622 202.601 40.7103 202.601 40.5964C202.601 40.5015 202.552 40.4635 202.502 40.4635C202.402 40.4635 202.302 40.6154 202.203 40.7293L202.302 39.6661L202.253 39.818C202.153 39.7041 202.153 39.4003 202.153 39.0396C202.203 38.6789 202.153 38.2801 202.203 37.9194C202.302 37.9194 202.352 38.3561 202.402 38.3181C202.452 37.9954 202.452 37.6156 202.452 37.2359C202.452 37.141 202.452 37.0461 202.452 36.9511C202.452 36.8562 202.402 36.7803 202.402 36.6853C202.352 36.5145 202.302 36.3626 202.253 36.2297C202.302 36.2297 202.402 36.3246 202.502 36.5335C202.552 36.6284 202.601 36.7613 202.601 36.8942C202.601 37.0461 202.601 37.2169 202.601 37.3878C202.601 37.4638 202.552 37.4258 202.502 37.5017L202.651 38.7738C202.601 38.0523 202.601 37.4638 202.701 37.0651C202.751 36.6664 202.851 36.4575 203 36.4765C202.452 35.1855 202.701 37.8435 202.352 36.1158ZM185.161 33.0401C185.261 33.3249 185.411 33.6096 185.51 33.8944C185.61 34.1602 185.71 34.445 185.759 34.7298C185.759 34.7488 185.759 34.7678 185.759 34.7678C185.859 35.0336 185.909 35.3184 185.959 35.5842C185.959 35.6032 185.959 35.6221 185.959 35.6411C186.009 35.9259 186.058 36.2107 186.108 36.5145C186.009 36.4006 185.909 36.2866 185.809 36.0588V36.2297C185.71 35.755 185.51 35.2804 185.311 34.8247C185.411 34.7488 185.66 35.1855 185.66 35.1855C185.56 34.7488 185.46 34.426 185.411 34.1223C185.311 33.8375 185.261 33.5717 185.161 33.3249C185.211 33.2109 185.211 33.116 185.161 33.0401ZM183.916 30.8377L184.015 30.8187C184.165 31.0466 184.265 31.2554 184.414 31.4832C184.314 31.5972 184.115 31.6161 183.766 31.0656C183.268 30.496 183.467 30.42 183.168 29.9264C183.418 30.2112 183.816 30.439 183.916 30.8377ZM156.261 6.21319C157.856 6.57392 157.906 6.70682 159.151 7.02957C158.354 6.83972 157.557 6.74479 156.61 6.42203V6.46C156.012 6.30811 155.414 6.15623 154.766 6.00434C154.667 5.9284 154.816 5.89043 156.261 6.21319ZM141.861 3.36532C143.256 3.55518 144.601 3.78301 145.947 4.01084C146.096 4.08678 144.801 3.89692 144.801 3.89692C145.997 4.12475 146.943 4.29562 147.79 4.46649C148.438 4.61838 148.986 4.73229 149.534 4.86519C146.844 4.29562 144.003 3.78301 141.163 3.32735C141.462 3.34633 141.811 3.38431 142.309 3.46025L141.861 3.36532ZM186.258 38.432C186.258 38.508 186.258 38.6029 186.258 38.6788C186.258 38.8497 186.258 39.0206 186.208 39.1725C186.208 39.2294 186.208 39.2864 186.208 39.3244C186.208 39.5142 186.158 39.7041 186.158 39.875C186.108 39.761 186.009 39.5712 185.859 39.6281C185.859 39.9509 185.859 40.2926 185.859 40.5205C185.859 40.7103 185.909 40.8053 186.009 40.6724C186.009 40.7293 185.959 40.7863 185.959 40.8432L185.61 41.7925C185.56 41.8305 185.66 41.3938 185.71 41.2229C185.61 41.4508 185.56 41.7925 185.51 42.0963C185.46 42.3431 185.411 42.5899 185.411 42.7418C185.361 42.8747 185.311 42.9886 185.261 43.1215C185.161 43.3304 185.112 43.5392 185.012 43.7481C185.012 43.7481 185.012 43.7481 185.012 43.767C184.912 43.9759 184.813 44.1847 184.713 44.3936C184.613 44.5834 184.514 44.7733 184.414 44.9631C184.314 45.0581 184.265 45.153 184.165 45.2669C183.916 45.7605 183.617 46.0074 183.318 46.2352C183.019 46.482 182.77 46.7478 182.321 47.2984C182.271 47.6401 181.873 48.0198 181.424 48.4565C180.926 48.8742 180.378 49.3488 180.079 49.8615C180.179 49.5767 179.93 49.8805 179.581 50.1083C179.282 50.3551 178.983 50.545 179.332 50.1083C179.033 50.2981 178.485 50.8108 177.936 51.3803C177.289 51.9309 176.591 52.5385 175.993 52.8802C176.093 52.7473 176.043 52.7663 176.192 52.5954C174.897 53.6396 175.046 53.2599 174 54.0004L174.299 54.0194C173.95 54.3231 173.651 54.3611 173.253 54.6269C173.601 54.437 174.399 54.0383 174.149 54.2852C173.651 54.6269 173.302 54.9307 172.704 55.2914C172.605 55.2724 172.954 55.0066 173.203 54.8357C173.203 54.8357 171.907 55.6142 171.708 55.6331C172.156 55.3484 172.704 54.9686 172.954 54.7028C171.21 55.7091 172.754 54.7598 171.758 55.2155C172.306 55.1585 170.363 56.1078 169.416 56.6584C169.216 56.6963 170.064 56.2787 170.213 56.1268C169.067 56.5824 168.32 56.9432 167.622 57.3798C166.924 57.8165 166.027 58.2532 164.682 58.8607C164.682 58.8228 165.031 58.6709 165.18 58.5949C164.881 58.7468 164.582 58.8797 164.283 58.9936C163.985 59.1075 163.686 59.2215 163.436 59.3164C162.888 59.5062 162.44 59.6961 162.091 59.9049C160.746 60.4176 161.593 59.9049 159.55 60.6834C159.948 60.6074 159.351 60.8352 158.653 61.101C157.906 61.3479 157.108 61.6137 157.208 61.6706C156.61 61.8415 156.012 62.0124 155.414 62.1642C154.019 62.6958 156.211 62.2212 153.222 63.1515C150.332 63.9109 153.122 62.9047 151.378 63.3034L150.83 63.5502L149.385 63.892C149.435 63.873 149.534 63.854 149.584 63.835C148.787 64.0818 147.192 64.4425 147.143 64.4236C147.242 64.3666 148.139 64.1198 148.239 64.0628C147.591 64.2717 146.146 64.5944 144.651 64.8982C143.904 65.0501 143.156 65.202 142.558 65.3539C141.911 65.4868 141.363 65.6197 141.064 65.7526C140.615 65.8285 139.918 65.9614 139.369 66.0563C138.821 66.1513 138.373 66.2082 138.473 66.1513C138.124 66.2652 137.077 66.436 136.031 66.6259C134.935 66.7968 133.789 66.9676 133.191 67.0816C133.241 67.0626 132.991 67.0816 132.593 67.1195C132.393 67.1385 132.144 67.1765 131.895 67.2145C131.646 67.2524 131.397 67.2904 131.148 67.3284C132.443 67.1765 131.696 67.3284 130.849 67.4992C130.251 67.5372 129.204 67.6891 128.158 67.822C127.162 67.9359 126.215 68.0308 125.916 68.0119C124.172 68.2777 124.869 68.2777 124.57 68.3916C123.375 68.4485 119.687 68.8282 120.235 68.6194C121.232 68.5435 123.474 68.3536 122.976 68.3156C121.082 68.4485 122.179 68.4296 120.634 68.6004C120.734 68.5814 119.538 68.6194 119.787 68.5624C118.89 68.6384 117.594 68.7523 116.249 68.8283C117.296 68.7903 116.997 68.8282 116.548 68.8852C116.1 68.9232 115.601 68.9801 116.249 68.9801C116.897 68.9042 117.545 68.8282 118.192 68.7523C120.584 68.5624 118.741 68.7713 119.637 68.7333C115.402 69.0941 116.299 69.132 112.313 69.4358C111.565 69.4358 110.17 69.4548 109.771 69.4738C111.117 69.4168 110.818 69.3029 110.07 69.3219C109.522 69.3598 108.974 69.3978 108.476 69.4168C107.978 69.4168 107.479 69.4168 106.981 69.4168C106.134 69.3978 105.337 69.3978 104.54 69.3788C105.636 69.3978 104.888 69.4738 104.34 69.5117C100.454 69.5877 102.796 69.4738 101.101 69.4168C100.354 69.4168 99.6563 69.3978 98.9587 69.3978C98.2612 69.3788 97.6134 69.3598 96.9656 69.3409C96.3179 69.3219 95.7199 69.3029 95.122 69.2649C94.524 69.227 93.9261 69.208 93.378 69.17C92.2319 69.132 91.1357 69.0371 90.0395 68.9801C89.4914 68.9422 88.9433 68.9232 88.3454 68.8852C87.7972 68.8662 87.1993 68.8093 86.6014 68.7713C87.3488 68.8662 88.0464 68.9611 88.7938 69.0371L89.5911 68.9801C91.335 69.151 89.1924 69.189 88.146 69.189C87.8969 69.151 84.957 68.9232 86.1529 68.9612C85.2062 68.9042 84.2594 68.8472 83.3127 68.7713C83.7113 68.8662 85.555 68.9801 84.2096 68.9232C83.3127 68.8283 80.4227 68.5055 82.2663 68.6384C81.5189 68.5624 80.6718 68.4865 80.0739 68.4485C79.4261 68.4106 79.0275 68.3726 79.177 68.4296C77.9811 68.2966 78.0807 68.2777 78.579 68.2966C78.8282 68.3156 79.177 68.3346 79.5756 68.3536C79.9244 68.3726 80.323 68.3916 80.5722 68.4106C79.6254 68.3156 79.2268 68.2397 79.177 68.2017C79.0773 68.1637 79.3265 68.1637 79.6254 68.1827L77.0344 67.8979C77.6323 67.9359 77.6323 67.8979 78.2302 67.9359C77.3832 67.822 76.6856 67.7461 75.9381 67.6891C75.2405 67.6132 74.5928 67.5182 73.8952 67.3853L73.1976 67.3663C68.7131 66.6069 69.2113 66.6829 65.1254 65.9044L65.7234 66.0943C65.3247 66.0373 64.9759 65.9804 64.677 65.9424C64.378 65.8855 64.1787 65.8475 63.9794 65.7905C63.5807 65.6956 63.2818 65.6197 62.933 65.5437C62.2852 65.3728 61.488 65.183 59.5447 64.7273C58.9966 64.6134 58.4484 64.4995 58 64.4046C57.5515 64.3096 57.1529 64.2147 56.8539 64.1578C56.256 64.0248 55.9072 63.9869 55.957 64.0628C54.6615 63.759 54.4622 63.6451 53.9639 63.4553C53.4656 63.3414 52.6684 63.1515 51.8213 62.9427C51.622 62.8857 51.3728 62.8287 51.1735 62.7718C50.9742 62.7148 50.7749 62.6579 50.5756 62.5819C50.177 62.449 49.7783 62.3351 49.4794 62.2022C50.5258 62.487 51.323 62.7148 52.2698 62.9806C52.1203 62.8287 49.1306 61.9934 47.7852 61.4808C47.2371 61.3289 46.0911 60.9871 44.8952 60.6074C44.2972 60.4176 43.6495 60.2087 43.1014 60.0188C42.8024 59.9239 42.5034 59.829 42.2543 59.7341C42.0051 59.6391 41.756 59.5442 41.5069 59.4683C42.1048 59.829 41.6065 59.791 39.9622 59.2215C40.1615 59.2404 39.6632 59.0316 39.0653 58.7278C38.4673 58.424 37.7199 58.0633 37.2715 57.8165C37.5704 57.9114 37.0722 57.6456 36.823 57.4558C36.5739 57.2659 36.4742 57.19 37.4708 57.6646C38.0189 57.9684 38.1186 58.1393 38.9656 58.5C38.7663 58.3671 38.4175 58.1393 37.9192 57.8545C37.6701 57.7216 37.421 57.5697 37.122 57.3988C36.8728 57.2279 36.5739 57.0571 36.2749 56.8862C36.3746 56.9052 36.5739 56.9811 36.8728 57.114C37.1718 57.2469 37.5206 57.3988 37.8694 57.5697C37.421 57.4178 37.6203 57.5317 37.6203 57.5697C40.2113 58.6709 37.3711 57.2279 37.9192 57.3608C37.2216 57.0571 35.9759 56.3736 36.4742 56.7343C36.2749 56.5634 35.9261 56.3546 35.4777 56.1268C35.079 55.8989 34.6306 55.6711 34.1821 55.4243C33.7337 55.1775 33.2354 54.9496 32.8866 54.7028C32.488 54.475 32.189 54.2472 31.9897 54.0573C31.89 54.0383 32.4381 54.475 31.5911 54.0004C30.9931 53.6396 30.7938 53.4498 30.6443 53.3169C30.5447 53.184 30.4948 53.108 30.2955 52.9561C30.0962 52.8612 29.5481 52.5195 29.0997 52.2157C28.701 51.9119 28.3522 51.6461 28.4519 51.7031C27.7045 51.1905 28.8007 52.3296 27.7543 51.6271C26.8574 51.1715 26.3093 50.45 25.6117 49.8615C25.0137 49.121 26.5086 50.5639 26.9072 50.8487L25.7612 49.8425C25.3625 49.5007 25.0636 49.159 24.7148 48.8172C24.2663 48.1907 25.2131 49.0641 25.7612 49.6716C25.4622 49.2539 25.0137 48.7793 24.5653 48.3806C24.1667 47.9819 23.8179 47.6591 23.6186 47.5452C23.2199 47.0136 22.9708 46.7478 22.7216 46.2352C22.9708 46.482 23.1701 46.5769 23.3694 46.7288C23.6186 46.8617 23.8677 47.0326 24.2165 47.4123C25.2131 48.6843 23.5687 46.9946 24.366 48.0768L24.6649 48.1338C24.9639 48.6084 25.4622 48.9501 25.9605 49.4248C26.1598 49.7096 25.811 49.3678 25.6117 49.197C26.0103 49.6336 26.4588 50.0134 26.8574 50.3931C27.0567 50.5639 27.256 50.7538 27.4553 50.9057C27.6546 51.0766 27.9038 51.2284 28.1529 51.3803C28.0034 51.2284 27.8041 51.0766 27.6546 50.9247C27.5052 50.7728 27.3058 50.6019 27.1564 50.431C26.8076 50.0893 26.4089 49.7476 26.0601 49.4248C25.4124 48.7603 24.8643 48.1907 24.7646 47.9249L23.6684 46.7478L22.6718 45.5517C22.5722 45.5517 22.9708 46.425 22.3729 45.7416C22.4227 45.4378 22.1237 44.6973 21.6753 43.7481C21.5258 44.1278 20.7783 42.2292 20.7783 42.7228C21.1271 43.1595 20.9777 43.4063 20.9777 43.4633C20.579 42.533 20.6787 43.3493 20.4296 42.8367C20.2801 42.419 20.2302 42.1912 20.2302 42.0963C20.2302 42.0014 20.2302 42.0014 20.2801 42.0203C20.3299 42.0393 20.3797 42.0583 20.2302 41.2229C20.3299 41.3938 20.5292 41.7166 20.7285 42.0963C20.9278 42.476 21.2766 42.9317 21.4759 43.3873C21.5756 43.3114 21.0773 42.476 21.0773 42.0773C21.0773 42.6279 20.6787 41.7166 20.7783 42.1532C20.2302 40.8053 19.6821 39.2294 19.6821 37.5777C19.8814 37.7106 19.9811 38.4131 20.0808 39.0016C20.1804 39.5902 20.4296 40.1028 20.6289 39.837C20.4296 39.0396 20.2801 39.0396 20.2801 38.3941C20.4296 38.1283 20.3797 37.6536 20.4296 37.103C20.4296 36.8372 20.4794 36.5335 20.4794 36.2487C20.4794 35.9639 20.579 35.6791 20.6289 35.3943L20.3797 35.869C20.3797 35.6601 20.4296 35.3563 20.5292 35.0526C20.6289 34.7488 20.7285 34.426 20.8282 34.1982V34.3311L20.9278 33.8565C20.9777 33.7805 20.9777 33.7615 21.0275 33.7615C21.0773 33.2299 21.8247 31.9199 22.3729 30.9327C22.2732 30.9327 22.0739 31.1605 21.9244 31.4643C21.7749 31.768 21.6254 32.1288 21.4759 32.3756C21.4261 32.4325 21.2268 32.6983 21.0773 32.8882C20.9777 33.078 20.8282 33.192 20.878 32.9641C21.177 32.3376 21.4261 31.825 21.6254 31.2744C21.7749 31.0086 21.9244 30.7238 22.1237 30.42C22.2234 30.2682 22.323 30.1163 22.4227 29.9644C22.4725 29.8884 22.5223 29.8125 22.5722 29.7176C22.622 29.6416 22.7216 29.5467 22.7715 29.4708C22.622 29.6037 22.4725 29.7555 22.3729 29.9074C22.5223 29.4518 23.1203 28.8632 23.6186 28.2177C24.2165 27.6481 24.1168 27.8759 23.9175 28.1417C23.7182 28.4265 23.5687 28.7683 23.9175 28.4075C23.7182 28.9012 22.8711 29.6796 23.0206 29.8315C23.3196 29.5847 23.6186 29.3568 23.9175 29.129C24.067 28.8063 24.366 28.4835 24.6649 28.1987C24.9639 27.9139 25.3127 27.6481 25.512 27.4203L24.9639 27.857C24.8144 27.743 25.4124 27.3443 25.6615 27.1355L25.0636 27.4013C24.7148 27.7241 24.5155 28.0278 24.3161 28.2747C24.1667 28.5405 23.9674 28.7873 23.6684 29.0151C24.1168 28.4075 24.2165 28.1607 24.366 27.8949C24.5653 27.6291 24.7148 27.3254 25.4622 26.6039C25.5619 26.5849 25.512 26.6419 25.4124 26.7368C25.3127 26.8317 25.2131 26.9646 25.2131 27.0406C25.4622 26.7938 25.7113 26.5469 26.0103 26.2622C26.3093 25.9774 26.6082 25.6546 27.1065 25.2559C26.6581 25.7116 26.0103 26.452 26.8076 25.9014L27.0567 25.4458C27.5052 25.085 27.4553 25.2559 27.6048 25.123C28.3024 24.6294 27.2062 25.199 28.3024 24.4205C28.5017 24.3066 28.9003 24.0598 28.8007 24.1927C29.0997 23.9649 29.2491 23.832 29.3986 23.737C29.5481 23.6421 29.5979 23.5852 29.6478 23.5282C29.7474 23.4143 29.8471 23.3194 30.3952 22.9017C29.3488 23.6421 28.9502 23.6042 30.0464 22.8257C31.6907 21.7625 32.7371 21.0031 34.232 20.3766L34.9296 19.8829C34.5808 20.2247 36.2251 19.2754 36.8728 18.9716C37.0722 18.9526 36.3247 19.3134 35.5773 19.7121C35.1787 19.9019 34.8299 20.1108 34.6306 20.2627C34.3814 20.4145 34.2818 20.5474 34.3316 20.5664C35.5773 19.9019 35.1289 20.2247 34.8299 20.4715C35.4777 20.1108 35.5275 20.0158 35.4777 19.9779C35.4278 19.9399 35.2783 19.9589 35.5275 19.769C35.6271 19.788 37.9192 18.5919 37.2715 19.0476C37.8694 18.7438 38.2182 18.5729 38.4674 18.402C38.7663 18.2312 39.0155 18.0983 39.4639 17.8894C39.4141 17.9844 39.3643 18.0793 39.5137 18.0793C39.5137 18.0413 39.8625 17.8894 40.2113 17.7565C40.5601 17.6046 40.9588 17.4717 41.1082 17.4148C40.8591 17.4907 41.4072 17.168 40.311 17.6616C40.4605 17.4907 43.0017 16.5414 42.8024 16.5225C42.9519 16.5225 43.5997 16.2946 44.3969 15.9909C44.7955 15.839 45.244 15.6681 45.6426 15.5162C46.0412 15.3643 46.4897 15.2314 46.8385 15.1175C46.5893 15.0606 45.9914 15.2884 45.3935 15.5352C44.7955 15.782 44.1976 16.0668 43.8488 16.0858C45.3436 15.3643 49.6787 13.9974 52.6684 13.0481C55.4089 12.3266 52.8179 13.105 53.4656 13.0291C52.8677 13.1999 52.3694 13.3518 51.921 13.4657C51.4725 13.5986 51.1237 13.7126 50.7749 13.8075C50.0773 14.0163 49.3797 14.2062 48.433 14.5669C48.9811 14.3771 49.6787 14.2062 50.3265 13.9784C51.0241 13.7695 51.7216 13.5417 52.4691 13.3328C53.9141 12.9152 55.2594 12.5165 56.1065 12.2696C57.4021 11.9279 58.1993 11.776 59.0962 11.6431C59.5447 11.5672 59.9931 11.4912 60.5412 11.3773C61.0893 11.2634 61.7371 11.1115 62.5344 10.9406C61.9862 10.9786 62.0361 10.9406 60.9897 11.1495C61.189 11.0925 61.4381 11.0356 61.6375 10.9786C61.8866 10.9217 62.1357 10.8837 62.3849 10.8267C62.8832 10.7318 63.3814 10.6179 63.8797 10.523C64.4278 10.3711 62.2852 10.7888 63.6306 10.466C64.1787 10.3711 65.3247 10.1432 65.1254 10.2382L64.9261 10.2951C66.5206 9.95338 67.1684 9.89642 67.7663 9.82048C68.3643 9.74454 68.8127 9.68758 70.2079 9.40279C69.9588 9.40279 69.3608 9.55468 68.6134 9.64961C68.0155 9.68758 69.7096 9.32685 71.055 9.09902C70.8557 9.19395 72.2508 8.90916 73.1976 8.79525C73.5464 8.79525 72.9484 8.87119 72.201 8.98511C71.4536 9.09902 70.6065 9.23192 70.4072 9.30787L71.7027 9.09902L72.3505 9.00409L72.9983 8.90916L72.4502 8.96612L75.2405 8.49148C73.2474 8.79525 74.1942 8.52945 75.0911 8.39655C76.0876 8.26365 77.134 8.14973 77.8814 8.09278C78.6289 8.01683 79.0773 7.99785 79.0275 8.0548C79.177 7.9219 81.768 7.67509 83.5618 7.48523C81.5687 7.6561 83.2629 7.42827 83.811 7.35233L86.9003 7.20044C83.7113 7.46625 87.5979 7.21943 86.9003 7.33335C86.4519 7.40929 85.7543 7.48523 84.957 7.54219C84.5584 7.58016 84.11 7.59915 83.7113 7.63712C83.2629 7.67509 82.8643 7.71306 82.4158 7.75103C84.0601 7.6561 85.2062 7.58016 86.3024 7.44726C86.8505 7.3903 87.3488 7.33335 87.9467 7.27639C88.5447 7.23842 89.1426 7.20045 89.89 7.18146C89.89 7.21943 89.6907 7.27639 88.3952 7.35233C88.6443 7.35233 89.2921 7.29537 90.1392 7.21943C90.9862 7.14349 91.9828 7.06754 92.9295 7.06754C92.4313 7.06754 91.2852 7.02957 93.2285 6.91566H95.8196C98.8093 6.87769 96.8161 6.78276 99.3076 6.68783L97.6632 6.64986C97.7629 6.61189 98.61 6.5929 99.457 6.57391C100.254 6.55493 101.052 6.55493 101.101 6.51696C100.304 6.51696 99.7062 6.53594 99.1082 6.57391C98.5103 6.5929 97.8625 6.63087 97.0653 6.63087C96.4175 6.55493 99.1082 6.53594 100.055 6.47899C101.749 6.49797 102.397 6.49797 102.995 6.51696C103.543 6.53594 103.991 6.53594 105.237 6.61189C105.287 6.68783 104.241 6.70681 103.294 6.76377C102.297 6.82073 101.4 6.87769 101.699 6.97262C104.938 6.89667 109.622 7.01059 111.715 7.16247C112.462 7.18146 112.96 7.20044 113.359 7.20044C113.758 7.20044 113.957 7.20045 114.107 7.18146C114.356 7.14349 114.206 7.08653 114.007 7.02957C115.203 7.08653 115.801 7.1245 116.548 7.20044L115.203 7.16247C116.997 7.21943 118.392 7.33335 119.787 7.40929C120.136 7.42827 120.485 7.44726 120.883 7.48523C121.232 7.50422 121.631 7.54219 121.979 7.58016C122.727 7.6561 123.574 7.73205 124.471 7.80799C125.019 7.84596 125.318 7.88393 125.567 7.88393C125.766 7.90292 125.866 7.88393 125.866 7.86495C125.866 7.82698 125.567 7.75103 125.368 7.69408L127.61 7.94089L127.261 7.88393C127.56 7.86495 128.158 7.9219 128.905 8.01683C129.653 8.09278 130.5 8.24466 131.198 8.33959C131.148 8.37756 130.251 8.26365 130.351 8.30162C130.998 8.41553 131.796 8.52945 132.593 8.62438C133.39 8.71931 134.088 8.85221 134.636 8.90916C134.636 8.92815 134.387 8.92815 133.938 8.87119C133.739 8.85221 133.44 8.81424 133.191 8.77626C132.892 8.73829 132.543 8.70032 132.144 8.62438C131.995 8.58641 132.094 8.58641 131.945 8.56742L129.304 8.26365C130.799 8.45351 131.995 8.62438 132.792 8.77626C133.589 8.92815 133.938 9.04206 133.838 9.08004C136.828 9.49772 131.546 8.60539 135.084 9.13699C135.632 9.25091 136.18 9.36482 136.729 9.45975C137.277 9.57367 137.775 9.6686 138.323 9.78251C139.369 9.99135 140.366 10.1432 141.263 10.3521C142.16 10.5419 143.007 10.7128 143.754 10.9027C144.502 11.0925 145.1 11.2824 145.598 11.4722C146.096 11.5672 146.644 11.6811 147.192 11.795C147.741 11.9089 148.338 12.0418 148.936 12.1937C149.534 12.3266 150.182 12.4785 150.88 12.6494C151.527 12.8202 152.225 13.0101 152.923 13.2189C152.973 13.181 153.471 13.3139 153.919 13.4468C154.368 13.5607 154.766 13.6936 154.716 13.5986C154.119 13.3518 153.421 13.181 152.773 12.9911C152.125 12.8202 151.478 12.6494 150.83 12.4785C149.534 12.1747 148.289 11.8899 147.242 11.5482C145.897 11.2634 146.246 11.4343 145.598 11.3393C145 11.2064 144.452 11.0735 144.003 10.9596C143.555 10.8647 143.256 10.7698 143.206 10.7318C143.555 10.8077 143.854 10.8457 144.053 10.8837C144.253 10.9217 144.452 10.9596 144.601 10.9786C144.9 11.0166 145 11.0356 145.199 11.0356C145.548 11.0546 145.947 11.1115 147.691 11.5292C147.541 11.4533 146.744 11.2444 145.797 11.0356C145.349 10.9217 144.851 10.8077 144.402 10.7128C143.954 10.6179 143.505 10.523 143.206 10.447C143.655 10.485 143.306 10.3711 142.509 10.1812C142.658 10.2002 142.808 10.2192 143.007 10.2572C147.591 11.2254 151.926 12.3456 155.912 13.6176C156.112 13.6746 156.211 13.7126 156.361 13.7505C156.859 13.9214 157.357 14.0733 157.856 14.2442L157.906 14.2632C158.404 14.415 158.852 14.5859 159.351 14.7568C159.251 14.7378 159.151 14.6998 159.002 14.6808L159.948 14.9846C160.098 15.0416 160.297 15.0985 160.447 15.1555C159.6 14.9466 159.301 14.9846 157.856 14.5669C159.002 14.9656 160.347 15.4593 161.543 15.9529C162.141 16.1997 162.739 16.4085 163.237 16.6174C163.735 16.8262 164.184 17.0161 164.533 17.149C164.931 17.4148 165.031 17.5477 164.682 17.4907C164.981 17.5857 165.23 17.6806 165.479 17.7755C165.729 17.8704 165.928 17.9654 166.127 18.0603C166.526 18.2502 166.875 18.421 167.223 18.6109C167.921 18.9716 168.419 19.3324 169.216 19.7311C171.01 20.5474 167.722 18.8008 169.117 19.3893C169.466 19.6361 170.263 20.0158 170.761 20.2627C170.462 20.1108 170.014 19.864 169.515 19.5982C168.868 19.2374 168.17 18.8387 167.572 18.535C168.569 18.9906 168.619 18.8957 168.967 19.0096C168.469 18.7438 167.921 18.478 167.373 18.2122C167.522 18.1932 168.07 18.44 168.619 18.7248C169.167 19.0096 169.765 19.3513 170.213 19.5222C169.565 19.3513 169.814 19.4842 169.117 19.2944C170.562 19.9399 172.455 21.0221 173.302 21.6676C173.801 22.0663 172.704 21.3828 172.306 21.2119C172.455 21.4018 173.552 21.9144 173.601 22.1043C173.302 22.0283 172.904 21.6486 172.455 21.4208C173.552 22.1422 174.698 22.8447 175.644 23.5852C175.545 23.6042 174.747 23.0536 174.299 22.7118C174.747 23.0536 175.096 23.3383 175.594 23.6421C175.844 23.794 176.093 23.9459 176.342 24.0978C176.641 24.2497 176.89 24.4205 177.239 24.6104C177.637 25.0091 178.136 25.4268 178.385 25.7306C178.634 26.0343 178.734 26.2052 178.534 26.0723C178.983 26.414 178.833 26.1672 178.933 26.1482C180.079 27.2114 180.428 27.2874 181.076 27.9329L180.777 27.4203C181.175 27.9519 181.325 28.0088 181.424 28.0468C181.474 28.0658 181.524 28.0848 181.624 28.1417C181.723 28.2177 181.823 28.3316 181.973 28.5784C181.674 28.4455 181.474 28.5404 181.424 28.7303C181.723 28.8632 182.072 29.4708 182.371 29.8884C182.371 29.6037 183.168 30.7618 182.919 30.0593C183.318 30.534 183.517 30.8757 183.716 31.1985C183.916 31.5212 184.015 31.806 184.364 32.1477C184.165 31.6921 185.012 32.9641 184.962 32.5654C185.411 33.5147 185.411 34.1792 185.112 33.9324C185.012 33.6096 184.863 33.078 184.713 33.116L185.062 33.9704C185.112 34.1223 185.211 34.2552 185.261 34.4071L185.411 34.8437C185.411 35.2804 185.51 35.831 185.311 35.9069C185.51 36.1727 185.51 36.5904 185.51 36.9891C185.51 37.179 185.51 37.3688 185.56 37.5397C185.56 37.7106 185.61 37.8625 185.66 37.9574C185.56 37.6726 185.56 37.4068 185.56 37.179C185.56 36.9701 185.61 36.7803 185.61 36.6664L185.71 36.9322C185.71 36.8942 185.71 36.8562 185.71 36.7993C185.859 37.0461 186.058 37.2929 186.208 37.5397C186.308 36.8182 185.909 37.4068 185.809 36.4006C185.959 35.9449 186.158 36.4575 186.357 36.9511C186.457 37.179 186.507 37.3878 186.607 37.5207C186.607 37.7296 186.607 37.9574 186.656 38.1662C186.258 38.1472 186.258 38.2802 186.258 38.432Z" fill="#231F20"/>
<path d="M89.4416 0.175694C89.5413 0.175694 89.5911 0.156708 89.6908 0.156708C89.5413 0.175694 89.4914 0.175694 89.4416 0.175694Z" fill="#231F20"/>
<path d="M170.512 20.1108C170.612 20.1488 170.661 20.1867 170.711 20.2247C170.661 20.1867 170.562 20.1488 170.512 20.1108Z" fill="#231F20"/>
<path d="M39.363 17.9844C39.3138 17.9844 39.3138 17.9844 39.2646 17.9844C39.2646 18.0037 39.3138 18.0037 39.363 17.9844Z" fill="#231F20"/>
<path d="M185.411 36.7613C185.411 36.8752 185.46 36.9321 185.509 37.084L185.411 36.7613Z" fill="#231F20"/>
<path d="M61.3883 16.1428C61.4382 16.1238 61.488 16.1048 61.5378 16.0858C61.5378 16.1048 61.4382 16.1238 61.3883 16.1428Z" fill="#231F20"/>
<path d="M127.46 32.8882C128.756 32.5085 130.052 31.6161 130.151 31.0466C130.251 29.9454 124.222 29.167 120.534 29.7365C119.687 30.5529 118.79 33.4767 119.986 34.5399C120.534 35.0146 126.115 33.2869 127.46 32.8882Z" fill="#231F20"/>
<path d="M119.687 38.2611C117.943 38.9256 118.392 40.8432 118.093 42.0393C117.794 43.3114 117.345 44.6783 118.392 45.6466C123.474 46.2162 132.643 44.7923 133.49 43.2164C135.084 40.3686 125.467 37.8435 119.687 38.2611Z" fill="#231F20"/>
<path d="M171.758 36.7423C171.808 36.5335 171.808 36.3436 171.808 36.1537C171.808 35.9639 171.758 35.774 171.708 35.5842C171.608 35.2045 171.558 34.8627 171.409 34.521C171.259 34.1982 171.16 33.8755 171.06 33.5907C170.96 33.3059 170.911 33.0591 170.96 32.8123C170.811 32.6414 170.661 32.4515 170.512 32.2427C170.363 32.0528 170.163 31.844 169.964 31.6161C169.765 31.4073 169.565 31.1605 169.366 30.9137C169.117 30.6669 168.917 30.42 168.668 30.1353C168.569 30.1542 168.419 29.9644 168.22 29.7935C168.07 29.6226 167.871 29.4708 167.771 29.5467C167.971 29.8125 168.12 30.0783 168.369 30.3061C168.569 30.5529 168.818 30.7808 169.067 31.0086C169.466 31.4643 169.864 31.9009 169.914 32.3566C170.263 32.8312 170.363 32.6604 170.562 32.8692C170.661 33.0781 170.811 33.2869 170.861 33.4578C170.911 33.6286 170.911 33.7426 170.861 33.7805C170.711 33.5337 170.612 33.4008 170.512 33.3059C170.412 33.211 170.313 33.173 170.263 33.135C170.113 33.0401 169.914 32.9262 169.565 32.2807C169.515 32.3756 169.665 32.6604 169.814 33.0021C169.914 33.173 170.014 33.3439 170.064 33.4957C170.113 33.6666 170.163 33.7995 170.213 33.9324C170.064 33.7995 170.014 33.9514 170.064 34.2552C170.064 34.2362 170.014 34.2172 170.014 34.1982C169.167 32.0908 167.672 30.0593 165.529 28.1228C165.529 28.1418 165.579 28.1418 165.579 28.1607L165.38 27.9899C165.23 27.876 165.081 27.7431 164.981 27.6291C165.43 27.876 165.778 27.8949 166.476 28.3696C165.978 27.9139 165.43 27.3633 164.832 26.8507C164.533 26.6039 164.234 26.3571 163.984 26.1482C163.686 25.9394 163.436 25.7685 163.237 25.6166C163.088 25.3698 163.088 25.2369 163.337 25.3129C163.137 25.2179 162.988 25.104 162.838 25.0091C162.689 24.9142 162.539 24.8192 162.39 24.7433C162.091 24.5724 161.892 24.4016 161.692 24.2307C161.294 23.8889 160.845 23.5852 160.247 23.2244C158.802 22.503 161.393 24.0408 160.198 23.5282C159.899 23.3004 159.251 22.9586 158.802 22.7498C159.052 22.8637 159.45 23.0915 159.849 23.3573C160.347 23.6611 160.895 24.0029 161.294 24.3066C160.646 23.8889 160.497 23.9839 160.247 23.8889C160.646 24.1168 160.945 24.3636 161.344 24.5914C161.194 24.5914 160.845 24.3826 160.447 24.1358C160.048 23.8889 159.6 23.6042 159.251 23.4713C159.799 23.6231 159.649 23.5092 160.198 23.6611C159.101 23.0915 157.457 22.2182 156.61 21.7056C156.112 21.4018 157.208 21.8954 157.557 22.0473C157.457 21.8765 156.311 21.5157 156.261 21.3448C156.56 21.3828 157.009 21.6866 157.457 21.8575C156.311 21.3069 155.215 20.7563 153.969 20.2247C154.019 20.2057 155.015 20.5854 155.514 20.8322C155.015 20.5664 154.517 20.3766 154.019 20.1677C153.77 20.0728 153.471 19.9589 153.122 19.864C152.823 19.769 152.424 19.6551 152.026 19.5602C151.378 19.2944 150.78 18.9906 150.282 18.8008C149.833 18.5919 149.584 18.478 149.883 18.535C149.186 18.3261 149.584 18.497 149.485 18.535C147.691 17.8515 147.143 17.9084 145.997 17.5477L146.744 17.8894C145.897 17.5667 145.698 17.5477 145.598 17.5477C145.448 17.5477 145.349 17.5477 144.552 17.2819C144.95 17.3009 145 17.206 144.85 17.0541C144.452 17.0351 143.455 16.6554 142.708 16.4465C143.057 16.6364 140.914 16.0668 142.06 16.4655C141.113 16.2567 140.466 16.0858 139.918 15.9149C139.32 15.763 138.771 15.6301 138.024 15.5162C138.821 15.744 136.33 15.2124 136.978 15.4403C135.184 15.0606 134.038 14.7188 134.636 14.7378C135.283 14.8707 136.23 15.1175 136.23 15.0416C135.084 14.8137 133.988 14.5669 132.842 14.3771C132.045 14.1872 130.948 13.9594 130.948 13.8645C130.35 13.8265 129.503 13.6746 128.756 13.5227C128.357 13.4468 127.959 13.3708 127.61 13.3329C127.261 13.2949 126.962 13.2569 126.713 13.2569C128.009 13.3518 128.806 13.6176 129.254 13.6936L128.706 13.6176C128.806 13.6366 128.856 13.6366 129.005 13.6746C128.457 13.6366 127.909 13.5987 127.361 13.5797C128.756 13.8645 127.71 13.5227 129.753 13.8645C130.55 14.0733 129.503 13.9594 128.457 13.8455C128.009 13.7885 127.61 13.7505 127.311 13.7316C125.617 13.4847 123.923 13.2569 122.179 13.0481C122.428 13.0481 122.727 13.0481 122.677 12.9911C122.029 12.9152 121.282 12.8392 120.833 12.8202C120.435 12.8013 120.235 12.8013 120.485 12.8582C120.186 12.8202 119.887 12.8013 119.538 12.7633L118.192 12.6114C118.143 12.5734 119.039 12.6684 119.388 12.7063C118.89 12.6494 118.192 12.5924 117.545 12.5355C117.146 12.5165 116.747 12.4975 116.448 12.4785C115.651 12.4215 114.854 12.3456 114.057 12.3076C113.11 12.2507 112.213 12.1937 111.266 12.1368C111.117 12.1178 110.918 12.0988 110.768 12.0798C109.672 12.0418 109.124 11.9849 108.576 11.9279C108.027 11.871 107.43 11.776 106.184 11.776C105.436 11.833 104.589 11.795 103.593 11.7381C102.596 11.7001 101.5 11.6811 100.354 11.7381C100.952 11.6811 100.254 11.6621 99.7062 11.6621C99.1082 11.6621 98.6099 11.6431 99.6065 11.5672C99.1581 11.5292 97.9124 11.5862 96.567 11.6241C95.2715 11.7001 93.8264 11.757 92.9295 11.757C93.2285 11.7191 93.1288 11.7001 93.5773 11.6621C91.0859 11.852 91.8333 11.6811 89.9897 11.795L90.0893 11.8899C89.3917 11.9659 89.1426 11.9279 88.5447 11.9849C89.0429 11.9659 90.1392 11.9279 89.591 12.0039C88.744 12.0988 88.0464 12.1747 87.1495 12.2507C87.0996 12.2127 87.7474 12.1368 88.146 12.0988C88.146 12.0988 86.1529 12.2507 86.0034 12.2127C86.701 12.0988 87.5979 12.0418 88.1959 11.9279C85.555 12.0988 87.9467 11.9089 86.6512 11.9279C87.0498 12.0039 84.4089 12.1937 83.0636 12.3646C82.8642 12.3266 84.0103 12.2507 84.3591 12.1747C82.9141 12.1937 81.9673 12.3266 80.8711 12.4785C79.8247 12.6304 78.6787 12.8582 76.9845 13.0481C77.0343 13.0291 77.433 12.9531 77.6323 12.9152C77.2337 12.9721 76.8849 13.0291 76.5361 13.0671C76.1873 13.124 75.8883 13.162 75.5893 13.2C74.9914 13.2759 74.4433 13.3518 73.9948 13.4658C72.5 13.6936 73.5962 13.3898 71.3539 13.7885C71.7526 13.7885 71.1048 13.9024 70.3574 14.0353C69.61 14.1872 68.8127 14.3391 68.8625 14.415C68.2646 14.51 67.6667 14.5859 67.1185 14.6998C65.7732 15.0985 67.8161 14.8137 65.0258 15.4593C62.4845 16.0478 64.9261 15.2124 63.3814 15.5162L62.8831 15.7251L61.5876 15.9909C60.89 16.1997 59.744 16.5035 59.6941 16.4655C59.744 16.4086 60.5412 16.1997 60.591 16.1427C60.0429 16.3326 58.7972 16.6174 57.6512 16.9591C57.0532 17.13 56.4553 17.2819 56.0069 17.4528C55.5584 17.6236 55.1598 17.7755 54.9605 17.9084C54.6117 18.0034 54.1134 18.1742 53.6649 18.2881C53.2663 18.421 52.9673 18.516 52.9673 18.459C52.768 18.5919 52.0704 18.8577 51.323 19.1235C50.5756 19.3893 49.8282 19.6931 49.4794 19.864C49.4794 19.826 49.2801 19.8829 49.0309 19.9779C48.7319 20.0728 48.3831 20.2057 48.134 20.3386C48.9811 20.0158 48.5326 20.2627 48.134 20.5285C47.7354 20.6614 47.0876 20.9461 46.4897 21.2119C45.9416 21.4778 45.3935 21.7436 45.1443 21.7625C44.2972 22.2941 44.7955 22.1612 44.7457 22.3131C43.9983 22.5979 42.2045 23.6421 42.2543 23.3953C42.7526 23.1105 43.9484 22.503 43.5498 22.5789C42.5034 23.0915 43.201 22.8257 42.4536 23.2814C42.4536 23.2244 41.8058 23.5472 41.8557 23.4333C41.457 23.7181 40.8591 24.0788 40.2113 24.4585C40.7594 24.1737 40.6598 24.2876 40.5103 24.4205C40.3608 24.5534 40.2113 24.7243 40.5103 24.5534C40.7096 24.3446 40.9587 24.1358 41.2079 23.9269C42.3041 23.2244 41.6065 23.813 42.1048 23.5662C40.2113 24.8003 40.9089 24.6294 39.3642 25.8255C39.0155 26.0343 38.4175 26.433 38.268 26.547C38.7663 26.1482 38.4175 26.1672 38.0687 26.3951C37.9192 26.5659 37.7199 26.7368 37.5206 26.8887C37.3213 27.0406 37.122 27.1925 36.9227 27.3254C36.524 27.6102 36.0756 27.876 35.7766 28.1607C36.3746 27.6671 36.2749 27.9709 36.1254 28.1607C35.1289 29.3948 35.5773 28.6164 34.9295 29.129C34.4811 29.6037 34.1821 30.0403 33.7835 30.439C33.4347 30.8377 33.1856 31.2175 32.8866 31.5972C32.5876 31.9579 32.3883 32.3186 32.189 32.6983C32.0893 32.8882 31.9897 33.0591 31.89 33.2489C31.7904 33.4388 31.7405 33.6286 31.6907 33.8375C31.89 33.5907 32.0395 33.3439 32.2886 33.116L32.1392 32.8502C32.6374 32.2807 32.6374 33.0021 32.6374 33.3439C32.488 33.4198 32.189 34.3881 32.189 33.9894C32.0893 34.3121 31.9897 34.6159 31.9399 34.9387C32.0893 34.8058 32.2886 34.1982 32.2388 34.6349C32.0395 34.9387 31.7405 35.9069 31.7405 35.2804C31.6907 35.5272 31.6409 35.812 31.5911 36.0208C31.5911 36.2297 31.6409 36.3626 31.7405 36.3056C31.6907 36.7043 31.6409 36.6854 31.5412 36.5145C31.4416 36.3436 31.3917 36.0208 31.3917 35.85C31.2921 36.1727 31.2423 36.3056 31.1426 36.3436C31.0928 36.3816 30.9931 36.3056 30.9931 36.2107L30.8935 37.103C30.8436 36.9132 30.744 36.9132 30.6941 36.7043C30.5945 37.0081 30.6443 37.2549 30.6443 37.5017C30.6941 37.7486 30.6941 37.9764 30.5945 38.2232L30.7938 38.451C30.744 40.0838 30.6941 39.9129 31.0928 41.4318L31.1924 41.166C31.2921 41.2989 31.3419 41.4318 31.3419 41.5267C31.3917 41.6216 31.4416 41.7166 31.4416 41.7925C31.4914 41.9444 31.4914 42.0583 31.4914 42.1912C31.4914 42.457 31.4914 42.7608 31.9897 43.5202C32.1392 43.7291 32.2388 43.9189 32.3883 44.0898C32.5378 44.2607 32.6374 44.3936 32.7371 44.5075C32.9364 44.7353 33.0859 44.8302 33.1856 44.7543C33.634 45.2289 33.5344 45.3618 33.634 45.5897C34.0825 45.9504 34.9794 46.7098 35.378 47.3174C34.9295 46.9377 34.5309 46.6339 34.2319 46.2542C34.0326 46.4061 35.2783 47.5452 35.8264 48.1528C36.1254 48.3426 36.6735 48.7793 37.3711 49.2349C38.0687 49.6906 38.8161 50.1842 39.4141 50.507C39.1649 50.1463 39.6134 50.2222 40.6598 50.8108C40.5103 50.7728 40.7594 51.0006 41.1581 51.2854C41.5567 51.5702 42.055 51.9119 42.3539 52.1398C42.1048 52.0448 42.4038 52.3106 42.6031 52.4815C42.8024 52.6524 42.8024 52.7283 42.055 52.2917C41.7062 52.0069 41.7062 51.855 41.0584 51.5132C41.1581 51.6271 41.4072 51.855 41.7062 52.1208C41.8557 52.2537 42.055 52.4056 42.2543 52.5385C42.4536 52.6903 42.7027 52.8422 42.902 52.9941C42.7526 52.9562 42.1048 52.6904 41.6563 52.3676C42.0051 52.5195 41.8557 52.4056 41.9055 52.3866C40.012 51.3234 41.9553 52.6904 41.5567 52.5764C42.1048 52.8612 43.1512 53.4688 42.7526 53.146C42.902 53.3169 43.201 53.4878 43.5498 53.6966C43.8986 53.8865 44.3471 54.0953 44.7457 54.2852C45.5928 54.7028 46.5395 55.0826 46.988 55.4053C47.0876 55.4243 46.4897 55.0636 47.3866 55.4243C48.0344 55.7091 48.2835 55.861 48.4828 55.9559C48.6323 56.0508 48.7319 56.1268 48.9313 56.2407C49.1804 56.3166 49.7783 56.5634 50.3763 56.7723C50.9742 56.9811 51.4227 57.171 51.323 57.133C52.3196 57.4558 50.6254 56.6584 52.0206 57.0951C53.067 57.3609 54.1632 57.8545 55.2594 58.2152C56.4055 58.7278 53.8642 57.7975 53.2663 57.6456L55.1598 58.2722C55.7577 58.481 56.4553 58.6709 57.1031 58.8607C58.1495 59.2594 56.4055 58.7848 55.3093 58.4051C56.0069 58.6709 56.9038 58.9557 57.6512 59.1835C58.3986 59.4113 59.146 59.5442 59.3952 59.5822C60.3419 59.886 60.89 60.0189 61.8368 60.3036C61.3385 60.1897 61.0395 60.1707 60.6409 60.1328C60.2921 60.0948 59.8436 60.0189 59.0962 59.81C56.7045 59.1075 60.1426 59.9809 58.1495 59.3733L57.8505 59.3923C57.1031 59.0886 56.3058 58.9177 55.3591 58.6329C54.9106 58.462 55.5086 58.6519 55.9072 58.7468C55.0601 58.5 54.4124 58.2342 53.7148 58.0064C53.366 57.8925 53.067 57.7785 52.7182 57.6836C52.4192 57.5887 52.0704 57.4748 51.7715 57.3798C52.0206 57.4938 52.2697 57.5887 52.5189 57.7026C52.8179 57.8165 53.1168 57.9114 53.4158 58.0254C54.0137 58.2342 54.6615 58.462 55.2594 58.6709C56.5051 59.0506 57.5515 59.4113 58 59.5822L60.3917 60.1897L62.8333 60.7593C62.8831 60.7213 61.3385 60.2467 62.7835 60.5505C63.1821 60.7783 64.5275 61.158 66.421 61.6137C65.8728 61.3668 69.6598 62.1642 68.7629 61.8984C67.8161 61.7655 67.4673 61.5757 67.3677 61.5567C69.2113 61.9364 67.7663 61.5187 68.7629 61.7276C69.61 61.9174 70.0086 61.9934 70.2079 62.0503C70.4072 62.0883 70.3574 62.1073 70.3574 62.1073C70.3075 62.1263 70.2079 62.1263 71.9021 62.468C71.5034 62.43 70.8058 62.3351 70.0086 62.2402C69.1615 62.1263 68.2148 61.9554 67.268 61.7845C67.3179 61.8605 69.1117 62.1832 69.8591 62.3731C68.8127 62.1073 70.756 62.43 69.8591 62.2402C72.6495 62.7338 76.0876 63.1705 79.6254 63.6072C79.2766 63.6451 77.7818 63.4743 76.4862 63.3224C75.1907 63.1705 74.0945 63.0186 74.5429 63.2085C76.2371 63.4553 76.3368 63.3793 77.7319 63.5882C78.2801 63.7211 79.2766 63.873 80.4725 63.9869C81.0704 64.0438 81.7182 64.1198 82.366 64.1957C83.0137 64.2717 83.6615 64.3096 84.2594 64.3666L83.213 64.2147C83.7113 64.2337 84.3591 64.3096 85.0069 64.3666C85.6546 64.4425 86.3522 64.5185 86.9003 64.5565H86.6014L87.6976 64.6134C87.8471 64.6324 87.8969 64.6324 87.8969 64.6514C89.0928 64.7083 92.0825 64.9552 94.3745 65.0121C94.3745 64.9741 93.8264 64.9552 93.1288 64.9172C92.4313 64.8792 91.5842 64.8602 91.0361 64.8223C90.8866 64.8033 90.2886 64.7653 89.89 64.7083C89.4914 64.6514 89.1924 64.6134 89.7405 64.6324C91.1357 64.7273 92.3316 64.7653 93.5773 64.8033C94.823 64.8223 96.1185 64.8602 97.713 64.8982C97.3642 64.8792 97.0154 64.8792 96.7165 64.8412C97.7629 64.8223 99.1082 64.8602 100.603 64.8982C101.998 64.9362 101.5 64.9552 100.852 64.9741C100.204 64.9931 99.4072 65.0121 100.254 65.0501C99.1581 65.107 97.2646 64.9931 96.9656 65.0881C97.5636 65.145 98.1117 65.183 98.7096 65.2399C99.457 65.221 100.204 65.2399 100.952 65.2589C101.649 65.2779 102.347 65.2969 102.845 65.2779L101.749 65.221C101.948 65.126 102.995 65.202 103.493 65.202L102.746 65.0691C101.948 65.0501 101.251 65.0881 100.653 65.107C100.055 65.107 99.457 65.107 98.9089 65.0691C100.354 65.0691 100.902 65.0501 101.5 65.0121C102.098 64.9741 102.796 64.9552 104.54 64.9362C104.689 64.9931 103.892 64.9552 103.543 64.9931C104.141 65.0121 104.739 64.9931 105.436 64.9552C106.134 64.9172 106.881 64.8982 107.828 64.8982C106.732 64.9552 104.988 65.0311 106.383 65.0691L107.38 64.9552C108.277 64.9552 107.928 64.9931 108.277 64.9931C109.522 64.9552 107.978 64.8982 109.921 64.8602C110.22 64.8602 110.868 64.8602 110.619 64.8982C111.167 64.8792 111.515 64.8602 111.765 64.8412C112.014 64.8223 112.113 64.8033 112.263 64.8033C112.512 64.7653 112.711 64.7463 113.758 64.6514C111.864 64.7653 111.765 64.6134 113.708 64.4995C116.448 64.3476 118.192 64.1008 120.136 64.0249L121.282 63.854C120.584 64.0249 122.976 63.6831 123.823 63.6072C124.022 63.6451 123.026 63.7591 121.979 63.873C121.481 63.9489 120.933 63.9869 120.534 64.0438C120.136 64.1008 119.887 64.1388 119.936 64.1767C121.73 64.0249 120.983 64.1388 120.435 64.2337C122.328 64.0249 121.082 64.0628 121.83 63.892C121.88 63.9299 125.019 63.5312 124.022 63.7401C124.82 63.6451 125.268 63.5502 125.667 63.4743C126.065 63.3983 126.414 63.3224 126.962 63.2464C126.813 63.3034 126.663 63.3793 126.813 63.4173C126.863 63.3983 127.261 63.3414 127.71 63.2844C128.158 63.2275 128.607 63.1705 128.756 63.1515C128.457 63.1705 129.204 62.9806 127.909 63.2275C128.158 63.1135 131.098 62.7148 130.948 62.6769C131.048 62.7148 131.796 62.5819 132.643 62.43C133.091 62.3541 133.539 62.2592 133.988 62.1832C134.436 62.1073 134.835 62.0124 135.184 61.9554C134.985 61.8795 134.387 62.0313 133.739 62.1642C133.091 62.3161 132.393 62.468 132.045 62.43C133.838 62.0693 138.124 61.2339 140.715 60.4745C143.107 59.9049 140.814 60.5505 141.412 60.4745C140.864 60.6264 140.416 60.7403 140.067 60.8352C139.668 60.9302 139.32 61.0061 138.971 61.0821C138.273 61.2339 137.675 61.3668 136.729 61.5947C137.277 61.4997 137.924 61.3479 138.572 61.196C139.22 61.0441 139.917 60.8922 140.565 60.7213C141.861 60.3796 143.057 60.0568 143.704 59.829C144.801 59.5252 145.498 59.3923 146.196 59.2404C146.545 59.1645 146.943 59.0696 147.342 58.9557C147.79 58.8417 148.289 58.6899 148.887 58.462C148.438 58.519 148.488 58.5 147.641 58.7278C148.289 58.5 149.086 58.2532 149.783 58.0064C150.132 57.8355 148.588 58.3291 149.534 57.9874C149.933 57.8735 150.78 57.5887 150.68 57.6836L150.531 57.7406C151.627 57.3039 152.076 57.171 152.524 57.0761C152.972 56.9621 153.321 56.8672 154.119 56.4305C153.919 56.4685 153.62 56.6584 153.122 56.8293C152.674 56.9432 153.67 56.4116 154.467 56.0508C154.417 56.1458 155.265 55.766 155.813 55.5002C156.062 55.4433 155.763 55.5952 155.314 55.804C154.866 55.9939 154.318 56.2217 154.218 56.2976C154.766 56.0698 155.364 55.861 155.863 55.6331L155.514 55.766L157.058 54.9497C155.962 55.5002 156.311 55.1395 156.809 54.9117C157.407 54.6649 157.955 54.3801 158.404 54.1902C158.852 54.0004 159.151 53.8865 159.151 53.9624C159.151 53.8485 160.397 53.146 161.244 52.6334C160.198 53.165 160.945 52.6714 161.194 52.4815L162.739 51.6841C161.344 52.5954 163.237 51.5322 162.988 51.779C162.888 51.9309 162.589 52.1398 162.191 52.3676C161.991 52.4815 161.792 52.5954 161.593 52.7093C161.393 52.8232 161.144 52.9372 160.945 53.0511C161.942 52.6524 162.39 52.3106 162.838 51.9879C163.038 51.817 163.237 51.6651 163.486 51.4942C163.686 51.3234 163.985 51.1335 164.283 50.9437C164.383 50.9626 164.383 51.0576 163.835 51.4183C163.985 51.3613 164.184 51.1525 164.483 50.9057C164.782 50.6589 165.18 50.3551 165.579 50.0703C165.33 50.2032 164.732 50.488 165.38 49.9184L166.576 49.216C167.622 48.3236 166.675 48.8742 167.373 48.1148L166.675 48.5704C166.625 48.5135 166.875 48.2667 167.174 48.0199C167.423 47.773 167.622 47.5452 167.522 47.5072C167.074 47.9629 166.924 48.2477 166.376 48.7223C165.928 48.8552 166.924 48.0958 167.124 47.811C167.672 47.3174 167.871 47.1275 168.07 46.9566C168.27 46.7858 168.469 46.6719 168.868 46.2921C169.067 46.2921 168.917 46.6339 168.768 46.9377C168.619 47.2414 168.469 47.5452 168.768 47.5072C169.765 46.52 170.661 45.0201 171.259 44.3556C171.409 44.1278 171.459 43.9569 171.459 43.824C171.459 43.6911 171.459 43.6152 171.409 43.5772C171.359 43.4823 171.16 43.5392 171.06 43.5962C171.21 43.2165 171.359 43.0266 171.558 42.7798L171.459 43.2165C171.708 42.6469 171.808 42.1912 171.957 41.7356C172.007 41.6217 172.007 41.5077 172.057 41.3938C172.057 41.2799 172.106 41.147 172.106 41.0331C172.156 40.7863 172.206 40.5205 172.306 40.2167C172.356 39.5332 172.057 39.799 171.907 39.9509L171.957 39.2105L171.907 39.3244C171.808 39.2484 171.758 39.0396 171.808 38.7928C171.808 38.546 171.808 38.2612 171.857 38.0144C171.957 38.0144 172.007 38.3181 172.057 38.2802C172.156 37.8435 172.106 37.179 171.957 36.8372C172.007 36.8372 172.106 36.9132 172.206 37.0461C172.306 37.179 172.356 37.3878 172.306 37.6536C172.306 37.7106 172.256 37.6726 172.206 37.7296L172.356 38.6029C172.306 38.0903 172.306 37.6916 172.405 37.4068C172.455 37.122 172.555 36.9891 172.704 36.9891C171.907 36.1158 172.057 37.9574 171.758 36.7423ZM96.1185 31.1605C96.2182 35.9259 96.866 43.7291 90.2886 47.4693C85.4553 50.1842 73.9948 52.4815 64.2783 49.8045C61.8866 49.14 58.4484 47.5072 57.402 46.3491C56.4553 45.2859 55.5584 42.9886 56.0069 41.3369C57.1031 40.0648 59.7938 39.6471 64.5275 39.818C68.1151 41.09 66.5704 43.5582 68.2148 45.21C68.9622 45.9884 71.3539 47.0896 74.4433 47.1465C79.8247 47.3174 83.512 43.6152 84.3591 41.0711C85.0069 37.8245 85.3058 32.6794 85.1065 29.5277C85.0069 28.4645 84.1598 27.5152 84.8075 26.8127C85.9038 25.6546 91.6838 24.9332 94.7233 25.9394C96.9656 26.6419 96.0189 29.2999 96.1185 31.1605ZM139.668 16.0288C140.765 16.2756 140.765 16.3896 141.661 16.6174C141.113 16.5035 140.515 16.4465 139.868 16.2187L139.818 16.2567C139.419 16.1428 138.971 16.0478 138.572 15.9529C138.472 15.858 138.622 15.801 139.668 16.0288ZM129.603 14.0733C130.55 14.2062 131.497 14.3581 132.443 14.51C132.493 14.5859 131.646 14.453 131.646 14.453C132.493 14.6049 133.141 14.7378 133.689 14.8517C134.187 14.9656 134.586 15.0606 135.034 15.1555C133.091 14.7568 131.098 14.3961 129.055 14.0543C129.254 14.0543 129.503 14.0733 129.902 14.1303L129.603 14.0733ZM143.704 43.4823C140.366 48.2477 126.763 49.6906 114.804 49.4438C111.366 49.3678 107.878 49.0831 106.832 48.0388C107.131 44.9062 107.778 41.6786 108.576 37.7296C109.124 35.0146 109.423 30.2112 111.615 27.6291C113.857 26.433 122.428 26.1103 128.308 26.2812C134.038 26.49 140.515 28.0848 141.113 29.6986C141.462 31.1035 139.07 32.1667 137.426 32.9831C135.483 33.9704 133.44 34.426 131.945 35.5652C134.337 36.5904 136.928 36.6854 138.971 37.5017C142.309 38.8307 145.149 41.3369 143.704 43.4823Z" fill="#231F20"/>
</svg>
